mtllib mis_obj_springvault_top_SD.mtl

v -5.048828 4.467041 -0.822510
v -5.788818 -0.529785 0.000000
v -5.788818 4.467041 0.000000
v -5.048828 -0.529785 -0.822510
v 5.048828 4.467041 -0.822510
v 5.048828 -0.529785 -0.822510
v 5.788818 4.467041 0.000000
v 5.788818 -0.529785 0.000000
v 5.048828 4.467041 0.822510
v 5.048828 -0.529785 0.822510
v -5.048828 4.467041 0.822510
v -5.048828 -0.529785 0.822510
v -5.788818 4.467041 0.000000

vt 1.407898 0.057312
vt 1.986877 0.014648
vt 1.407898 0.014648
vt 1.986877 0.057312
vt 1.407898 0.316528
vt 1.986877 0.316772
vt 1.407898 0.360291
vt 1.986877 0.360535
vt 1.407898 0.316528
vt 1.986877 0.316772
vt 1.407898 0.057312
vt 1.986877 0.057312
vt 1.407898 0.014648

vn -0.409056 0.000000 -0.912509
vn -1.000000 0.000000 0.000000
vn -1.000000 0.000000 0.000000
vn -0.409056 0.000000 -0.912509
vn 0.409056 0.000000 -0.912509
vn 0.409056 0.000000 -0.912509
vn 1.000000 0.000000 0.000000
vn 1.000000 0.000000 0.000000
vn 0.409056 0.000000 0.912509
vn 0.409056 0.000000 0.912509
vn -0.409056 0.000000 0.912509
vn -0.409056 0.000000 0.912509
vn -1.000000 0.000000 0.000000

g polygon0
s 1
usemtl mat1
f 1/1/1 2/2/2 3/3/3
f 1/1/1 4/4/4 2/2/2
f 5/5/5 4/4/4 1/1/1
f 5/5/5 6/6/6 4/4/4
f 7/7/7 6/6/6 5/5/5
f 7/7/7 8/8/8 6/6/6
f 9/9/9 8/8/8 7/7/7
f 9/9/9 10/10/10 8/8/8
f 11/11/11 10/10/10 9/9/9
f 11/11/11 12/12/12 10/10/10
f 13/13/13 12/12/12 11/11/11
f 13/13/13 2/2/2 12/12/12

v -5.946777 5.679744 -2.786133
v -7.581543 5.674861 -3.551270
v -7.581543 5.679744 -3.245117
v -5.792480 5.674861 -3.049316
v -4.795410 5.679744 -1.634766
v -4.532227 5.674861 -1.789063
v -4.336426 5.679744 0.000000
v -4.030273 5.674861 0.000000
v -4.795410 5.679744 1.634766
v -4.532227 5.674861 1.789063
v -5.946777 5.679744 2.786133
v -5.792480 5.674861 3.049316
v -7.581543 5.679744 3.245117
v -7.581543 5.674861 3.551270
v -9.215820 5.679744 2.786133
v -9.370605 5.674861 3.049316
v -10.367188 5.679744 1.634766
v -10.630371 5.674861 1.789063
v -10.826172 5.679744 0.000000
v -11.132813 5.674861 0.000000
v -10.367188 5.679744 -1.634766
v -10.630371 5.674861 -1.789063
v -9.215820 5.679744 -2.786133
v -9.370605 5.674861 -3.049316
v -7.581543 5.679744 -3.245117
v -7.581543 5.674861 -3.551270
v 8.517090 5.653377 3.486328
v 8.517090 4.496638 4.862793
v 11.724609 4.496638 3.165039
v -8.517090 4.496638 4.862793
v -8.517090 5.653377 3.486328
v -10.630859 5.653377 2.098145
v -10.630859 5.653377 -2.097656
v -11.666504 5.653377 0.000000
v -13.241699 4.496638 0.000000
v -11.724609 4.496638 3.165039
v -14.235840 2.131892 2.222168
v -12.745117 2.131892 4.403809
v -11.724609 4.496638 -3.165039
v -11.004883 2.131892 -5.497070
v -12.745117 2.131892 -4.403809
v -8.517090 4.496638 -4.862793
v -8.517090 5.653377 -3.485840
v 8.517090 5.653377 -3.485840
v 10.630859 5.653377 2.098145
v 13.241699 4.496638 0.000000
v 14.235840 2.131892 2.222168
v 14.589355 2.131892 0.000000
v 8.517090 2.131892 0.000000
v 8.517090 2.131892 -6.127441
v 11.004883 2.131892 -5.497070
v 0.000000 2.131892 -6.127441
v 0.000000 2.131892 0.000000
v -8.517090 2.131892 -6.127441
v -8.517090 2.131892 0.000000
v -11.004883 2.131892 -5.497070
v -12.745117 2.131892 -4.403809
v -8.517090 2.131892 -6.127441
v 0.000000 2.131892 -6.127441
v 8.517090 4.496638 -4.862793
v 8.517090 2.131892 -6.127441
v 11.004883 2.131892 -5.497070
v 12.745117 2.131892 4.403809
v 11.004883 2.131892 5.497070
v 8.517090 2.131892 6.127441
v 0.000000 2.131892 6.127441
v -8.517090 2.131892 6.127441
v 0.000000 2.131892 6.127441
v 8.517090 2.131892 6.127441
v 11.004883 2.131892 5.497070
v 11.724609 4.496638 -3.165039
v 10.630859 5.653377 -2.097656
v -11.004883 2.131892 5.497070
v -8.517090 2.131892 6.127441
v 14.235840 2.131892 -2.222168
v 12.745117 2.131892 -4.403809
v -14.235840 2.131892 -2.222168
v -14.589355 2.131892 0.000000
v -14.235840 2.131892 -2.222168
v -14.589355 2.131892 0.000000
v -14.235840 2.131892 2.222168
v 0.000000 6.172908 0.000000
v -2.785645 5.679744 -1.634766
v -3.245117 5.679744 0.000000
v -1.634766 5.679744 -2.786133
v 0.000000 5.679744 -3.245117
v -12.745117 2.131892 4.403809
v -11.004883 2.131892 5.497070
v 12.745117 2.131892 4.403809
v 14.235840 2.131892 2.222168
v 14.589355 2.131892 0.000000
v -7.581543 6.172908 0.000000
v -10.826172 5.679744 0.000000
v -10.367188 5.679744 1.634766
v -10.367188 5.679744 -1.634766
v -9.215820 5.679744 -2.786133
v -4.336426 5.679744 0.000000
v -4.795410 5.679744 -1.634766
v -4.795410 5.679744 1.634766
v -5.946777 5.679744 2.786133
v -7.581543 5.679744 -3.245117
v -5.946777 5.679744 -2.786133
v -7.581543 5.679744 3.245117
v -9.215820 5.679744 2.786133
v 7.581543 6.172908 0.000000
v 10.367188 5.679744 1.634766
v 10.826172 5.679744 0.000000
v 9.215820 5.679744 2.786133
v 7.581543 5.679744 3.245117
v 5.946777 5.679744 2.786133
v 4.795410 5.679744 1.634766
v 4.336426 5.679744 0.000000
v 4.795410 5.679744 -1.634766
v 5.946777 5.679744 -2.786133
v 7.581543 5.679744 -3.245117
v 2.785645 5.679744 1.634766
v 3.245117 5.679744 0.000000
v 1.634766 5.679744 2.786133
v 0.000000 5.679744 3.245117
v -1.634766 5.679744 2.786133
v -2.785645 5.679744 1.634766
v 11.666504 5.653377 0.000000
v 7.581543 5.674861 -3.551270
v 5.946777 5.679744 -2.786133
v 7.581543 5.679744 -3.245117
v 5.792480 5.674861 -3.049316
v 7.581543 5.679744 -3.245117
v 9.370605 5.674861 -3.049316
v 7.581543 5.674861 -3.551270
v 9.215820 5.679744 -2.786133
v 10.630371 5.674861 -1.789063
v 10.367188 5.679744 -1.634766
v 11.132813 5.674861 0.000000
v 10.826172 5.679744 0.000000
v 10.630371 5.674861 1.789063
v 10.367188 5.679744 1.634766
v 9.215820 5.679744 2.786133
v 7.581543 5.674861 3.551270
v 9.370605 5.674861 3.049316
v 7.581543 5.679744 3.245117
v 5.792480 5.674861 3.049316
v 5.946777 5.679744 2.786133
v 4.795410 5.679744 -1.634766
v 4.532227 5.674861 -1.789063
v 4.336426 5.679744 0.000000
v 4.030273 5.674861 0.000000
v 4.795410 5.679744 1.634766
v 4.532227 5.674861 1.789063
v 0.000000 5.674861 -3.551270
v -1.634766 5.679744 -2.786133
v 0.000000 5.679744 -3.245117
v -1.789063 5.674861 -3.049316
v 0.000000 5.679744 -3.245117
v 1.789063 5.674861 -3.049316
v 0.000000 5.674861 -3.551270
v 1.634766 5.679744 -2.786133
v 10.367188 5.679744 -1.634766
v 9.215820 5.679744 -2.786133
v 2.785645 5.679744 -1.634766
v 1.634766 5.679744 -2.786133
v 12.745117 2.131892 -4.403809
v 14.235840 2.131892 -2.222168
v -3.048828 5.674861 1.789063
v -1.634766 5.679744 2.786133
v -2.785645 5.679744 1.634766
v -1.789063 5.674861 3.049316
v -3.551270 5.674861 0.000000
v -3.245117 5.679744 0.000000
v -3.048828 5.674861 -1.789063
v -2.785645 5.679744 -1.634766
v 0.000000 5.679744 3.245117
v 0.000000 5.674861 3.551270
v 1.634766 5.679744 2.786133
v 1.789063 5.674861 3.049316
v 2.785645 5.679744 1.634766
v 3.048828 5.674861 1.789063
v 3.245117 5.679744 0.000000
v 3.551270 5.674861 0.000000
v 2.785645 5.679744 -1.634766
v 3.048828 5.674861 -1.789063

vt 0.063782 0.998810
vt 0.041351 0.958435
vt 0.042053 0.998810
vt 0.064606 0.958435
vt 0.089691 0.998810
vt 0.089813 0.958435
vt 0.115143 0.998810
vt 0.115845 0.958435
vt 0.144440 0.998810
vt 0.144775 0.958435
vt 0.171692 0.998810
vt 0.172089 0.958435
vt 0.194366 0.998810
vt 0.196045 0.958435
vt 0.220612 0.998810
vt 0.220642 0.958435
vt 0.247833 0.998810
vt 0.246582 0.958435
vt 0.271118 0.998810
vt 0.271393 0.958435
vt 0.298370 0.998810
vt 0.296753 0.958435
vt 0.321106 0.998810
vt 0.320892 0.958435
vt 0.346161 0.998810
vt 0.347473 0.958435
vt 0.274597 0.958405
vt 0.306915 0.745209
vt 0.267059 0.745209
vt 0.306915 0.745209
vt 0.274597 0.958405
vt 0.242004 0.958405
vt 0.143494 0.958405
vt 0.192749 0.958405
vt 0.192749 0.745209
vt 0.267059 0.745209
vt 0.242188 0.482300
vt 0.288269 0.482300
vt 0.118439 0.745209
vt 0.068848 0.482300
vt 0.097198 0.482300
vt 0.078583 0.745209
vt 0.110901 0.958405
vt 0.110901 0.958405
vt 0.242004 0.958405
vt 0.192749 0.745209
vt 0.242188 0.482300
vt 0.192749 0.482300
vt 0.229065 0.010712
vt 0.228943 0.277954
vt 0.293793 0.250000
vt 0.006805 0.277954
vt 0.006805 0.010712
vt 0.228943 0.277954
vt 0.228821 0.010712
vt 0.293793 0.250000
vt 0.339172 0.201508
vt 0.048889 0.482300
vt 0.048889 0.482300
vt 0.078583 0.745209
vt 0.048889 0.482300
vt 0.068848 0.482300
vt 0.288269 0.482300
vt 0.316650 0.482300
vt 0.336578 0.482300
vt 0.336578 0.482300
vt 0.228943 0.277954
vt 0.006805 0.277954
vt 0.228943 0.277954
vt 0.293793 0.250000
vt 0.118439 0.745209
vt 0.143494 0.958405
vt 0.316650 0.482300
vt 0.336578 0.482300
vt 0.143280 0.482300
vt 0.097198 0.482300
vt 0.143280 0.482300
vt 0.192749 0.482300
vt 0.378021 0.104767
vt 0.387238 0.010712
vt 0.378021 0.104767
vt 0.688568 0.689148
vt 0.448792 0.829834
vt 0.409271 0.689148
vt 0.547882 0.928955
vt 0.688568 0.968445
vt 0.339172 0.201508
vt 0.293793 0.250000
vt 0.339172 0.201508
vt 0.378021 0.104767
vt 0.387238 0.010712
vt 0.688568 0.689148
vt 0.967896 0.689148
vt 0.928375 0.548431
vt 0.928375 0.829834
vt 0.829285 0.928955
vt 0.409271 0.689148
vt 0.448792 0.829834
vt 0.448792 0.548431
vt 0.547882 0.449341
vt 0.688568 0.968445
vt 0.547882 0.928955
vt 0.688568 0.409821
vt 0.829285 0.449341
vt 0.688568 0.689148
vt 0.928375 0.548431
vt 0.967896 0.689148
vt 0.829285 0.449341
vt 0.688568 0.409821
vt 0.547882 0.449341
vt 0.448792 0.548431
vt 0.409271 0.689148
vt 0.448792 0.829834
vt 0.547882 0.928955
vt 0.688568 0.968445
vt 0.928375 0.548431
vt 0.967896 0.689148
vt 0.829285 0.449341
vt 0.688568 0.409821
vt 0.547882 0.449341
vt 0.448792 0.548431
vt 0.192749 0.958405
vt 0.041351 0.958435
vt 0.063782 0.998810
vt 0.042053 0.998810
vt 0.064606 0.958435
vt 0.346161 0.998810
vt 0.320892 0.958435
vt 0.347473 0.958435
vt 0.321106 0.998810
vt 0.296753 0.958435
vt 0.298370 0.998810
vt 0.271393 0.958435
vt 0.271118 0.998810
vt 0.246582 0.958435
vt 0.247833 0.998810
vt 0.220612 0.998810
vt 0.196045 0.958435
vt 0.220642 0.958435
vt 0.194366 0.998810
vt 0.172089 0.958435
vt 0.171692 0.998810
vt 0.089691 0.998810
vt 0.089813 0.958435
vt 0.115143 0.998810
vt 0.115845 0.958435
vt 0.144440 0.998810
vt 0.144775 0.958435
vt 0.041351 0.958435
vt 0.063782 0.998810
vt 0.042053 0.998810
vt 0.064606 0.958435
vt 0.346161 0.998810
vt 0.320892 0.958435
vt 0.347473 0.958435
vt 0.321106 0.998810
vt 0.928375 0.829834
vt 0.829285 0.928955
vt 0.928375 0.829834
vt 0.829285 0.928955
vt 0.339172 0.201508
vt 0.378021 0.104767
vt 0.144775 0.958435
vt 0.171692 0.998810
vt 0.144440 0.998810
vt 0.172089 0.958435
vt 0.115845 0.958435
vt 0.115143 0.998810
vt 0.089813 0.958435
vt 0.089691 0.998810
vt 0.194366 0.998810
vt 0.196045 0.958435
vt 0.220612 0.998810
vt 0.220642 0.958435
vt 0.247833 0.998810
vt 0.246582 0.958435
vt 0.271118 0.998810
vt 0.271393 0.958435
vt 0.298370 0.998810
vt 0.296753 0.958435

vn 0.036560 0.997379 -0.062439
vn 0.000000 0.999882 -0.015381
vn 0.000000 0.997456 -0.071290
vn 0.007813 0.999880 -0.013367
vn 0.062439 0.997379 -0.036560
vn 0.013367 0.999880 -0.007813
vn 0.071290 0.997456 0.000000
vn 0.015381 0.999882 0.000000
vn 0.062439 0.997379 0.036560
vn 0.013367 0.999880 0.007813
vn 0.036560 0.997379 0.062439
vn 0.007813 0.999880 0.013367
vn 0.000000 0.997456 0.071290
vn 0.000000 0.999882 0.015381
vn -0.036560 0.997379 0.062439
vn -0.007813 0.999880 0.013367
vn -0.062439 0.997379 0.036560
vn -0.013367 0.999880 0.007813
vn -0.071290 0.997456 0.000000
vn -0.015381 0.999882 0.000000
vn -0.062439 0.997379 -0.036560
vn -0.013367 0.999880 -0.007813
vn -0.036560 0.997379 -0.062439
vn -0.007813 0.999880 -0.013367
vn 0.000000 0.997456 -0.071290
vn 0.000000 0.999882 -0.015381
vn 0.114499 0.917824 0.380117
vn 0.157526 0.631447 0.759250
vn 0.525705 0.684765 0.504709
vn -0.162844 0.636178 0.754161
vn -0.137392 0.911696 0.387213
vn -0.271489 0.927690 0.256291
vn -0.277711 0.930425 -0.239137
vn -0.387278 0.921960 -0.002319
vn -0.726605 0.687055 -0.000549
vn -0.517819 0.689326 0.506649
vn -0.835700 -0.421756 0.351748
vn -0.623720 -0.426881 0.654787
vn -0.525705 0.684765 -0.504709
vn -0.380194 -0.442573 -0.812146
vn -0.623720 -0.426881 -0.654787
vn -0.157474 0.631482 -0.759231
vn -0.114442 0.917852 -0.380068
vn 0.137388 0.911728 -0.387139
vn 0.277711 0.930425 0.239137
vn 0.726605 0.687055 0.000610
vn 0.835700 -0.421756 0.351748
vn 0.883657 -0.468134 0.000000
vn 0.000000 -1.000000 0.000000
vn 0.104251 -0.487561 -0.866843
vn 0.380194 -0.442573 -0.812146
vn 0.000000 -0.514029 -0.857773
vn 0.000000 -1.000000 0.000000
vn -0.104251 -0.487561 -0.866843
vn 0.000000 -1.000000 0.000000
vn -0.380194 -0.442573 -0.812146
vn -0.623720 -0.426881 -0.654787
vn -0.104251 -0.487561 -0.866843
vn 0.000000 -0.514029 -0.857773
vn 0.162778 0.636221 -0.754139
vn 0.104251 -0.487561 -0.866843
vn 0.380194 -0.442573 -0.812146
vn 0.623720 -0.426881 0.654787
vn 0.380194 -0.442573 0.812146
vn 0.104251 -0.487561 0.866843
vn 0.000000 -0.514029 0.857773
vn -0.104251 -0.487561 0.866843
vn 0.000000 -0.514029 0.857773
vn 0.104251 -0.487561 0.866843
vn 0.380194 -0.442573 0.812146
vn 0.517819 0.689326 -0.506649
vn 0.271478 0.927713 -0.256220
vn -0.380194 -0.442573 0.812146
vn -0.104251 -0.487561 0.866843
vn 0.835700 -0.421756 -0.351748
vn 0.623720 -0.426881 -0.654787
vn -0.835700 -0.421756 -0.351748
vn -0.883657 -0.468134 0.000000
vn -0.835700 -0.421756 -0.351748
vn -0.883657 -0.468134 0.000000
vn -0.835700 -0.421756 0.351748
vn 0.000000 1.000000 0.000000
vn -0.062439 0.997379 -0.036560
vn -0.071290 0.997456 0.000000
vn -0.036560 0.997379 -0.062439
vn 0.000000 0.997456 -0.071290
vn -0.623720 -0.426881 0.654787
vn -0.380194 -0.442573 0.812146
vn 0.623720 -0.426881 0.654787
vn 0.835700 -0.421756 0.351748
vn 0.883657 -0.468134 0.000000
vn 0.000000 1.000000 0.000000
vn -0.071290 0.997456 0.000000
vn -0.062439 0.997379 0.036560
vn -0.062439 0.997379 -0.036560
vn -0.036560 0.997379 -0.062439
vn 0.071290 0.997456 0.000000
vn 0.062439 0.997379 -0.036560
vn 0.062439 0.997379 0.036560
vn 0.036560 0.997379 0.062439
vn 0.000000 0.997456 -0.071290
vn 0.036560 0.997379 -0.062439
vn 0.000000 0.997456 0.071290
vn -0.036560 0.997379 0.062439
vn 0.000000 1.000000 0.000000
vn 0.062439 0.997379 0.036560
vn 0.071290 0.997456 0.000000
vn 0.036560 0.997379 0.062439
vn 0.000000 0.997456 0.071290
vn -0.036560 0.997379 0.062439
vn -0.062439 0.997379 0.036560
vn -0.071290 0.997456 0.000000
vn -0.062439 0.997379 -0.036560
vn -0.036560 0.997379 -0.062439
vn 0.000000 0.997456 -0.071290
vn 0.062439 0.997379 0.036560
vn 0.071290 0.997456 0.000000
vn 0.036560 0.997379 0.062439
vn 0.000000 0.997456 0.071290
vn -0.036560 0.997379 0.062439
vn -0.062439 0.997379 0.036560
vn 0.387278 0.921960 0.002319
vn 0.000000 0.999882 -0.015381
vn -0.036560 0.997379 -0.062439
vn 0.000000 0.997456 -0.071290
vn -0.007813 0.999880 -0.013367
vn 0.000000 0.997456 -0.071290
vn 0.007813 0.999880 -0.013367
vn 0.000000 0.999882 -0.015381
vn 0.036560 0.997379 -0.062439
vn 0.013367 0.999880 -0.007813
vn 0.062439 0.997379 -0.036560
vn 0.015381 0.999882 0.000000
vn 0.071290 0.997456 0.000000
vn 0.013367 0.999880 0.007813
vn 0.062439 0.997379 0.036560
vn 0.036560 0.997379 0.062439
vn 0.000000 0.999882 0.015381
vn 0.007813 0.999880 0.013367
vn 0.000000 0.997456 0.071290
vn -0.007813 0.999880 0.013367
vn -0.036560 0.997379 0.062439
vn -0.062439 0.997379 -0.036560
vn -0.013367 0.999880 -0.007813
vn -0.071290 0.997456 0.000000
vn -0.015381 0.999882 0.000000
vn -0.062439 0.997379 0.036560
vn -0.013367 0.999880 0.007813
vn 0.000000 0.999882 -0.015381
vn -0.036560 0.997379 -0.062439
vn 0.000000 0.997456 -0.071290
vn -0.007813 0.999880 -0.013367
vn 0.000000 0.997456 -0.071290
vn 0.007813 0.999880 -0.013367
vn 0.000000 0.999882 -0.015381
vn 0.036560 0.997379 -0.062439
vn 0.062439 0.997379 -0.036560
vn 0.036560 0.997379 -0.062439
vn 0.062439 0.997379 -0.036560
vn 0.036560 0.997379 -0.062439
vn 0.623720 -0.426881 -0.654787
vn 0.835700 -0.421756 -0.351748
vn -0.013367 0.999880 0.007813
vn -0.036560 0.997379 0.062439
vn -0.062439 0.997379 0.036560
vn -0.007813 0.999880 0.013367
vn -0.015381 0.999882 0.000000
vn -0.071290 0.997456 0.000000
vn -0.013367 0.999880 -0.007813
vn -0.062439 0.997379 -0.036560
vn 0.000000 0.997456 0.071290
vn 0.000000 0.999882 0.015381
vn 0.036560 0.997379 0.062439
vn 0.007813 0.999880 0.013367
vn 0.062439 0.997379 0.036560
vn 0.013367 0.999880 0.007813
vn 0.071290 0.997456 0.000000
vn 0.015381 0.999882 0.000000
vn 0.062439 0.997379 -0.036560
vn 0.013367 0.999880 -0.007813

g polygon1
s 1
usemtl mat1
f 14/14/14 15/15/15 16/16/16
f 14/14/14 17/17/17 15/15/15
f 18/18/18 17/17/17 14/14/14
f 18/18/18 19/19/19 17/17/17
f 20/20/20 19/19/19 18/18/18
f 20/20/20 21/21/21 19/19/19
f 22/22/22 21/21/21 20/20/20
f 22/22/22 23/23/23 21/21/21
f 24/24/24 23/23/23 22/22/22
f 24/24/24 25/25/25 23/23/23
f 26/26/26 25/25/25 24/24/24
f 26/26/26 27/27/27 25/25/25
f 28/28/28 27/27/27 26/26/26
f 28/28/28 29/29/29 27/27/27
f 30/30/30 29/29/29 28/28/28
f 30/30/30 31/31/31 29/29/29
f 32/32/32 31/31/31 30/30/30
f 32/32/32 33/33/33 31/31/31
f 34/34/34 33/33/33 32/32/32
f 34/34/34 35/35/35 33/33/33
f 36/36/36 35/35/35 34/34/34
f 36/36/36 37/37/37 35/35/35
f 38/38/38 37/37/37 36/36/36
f 38/38/38 39/39/39 37/37/37
f 40/40/40 41/41/41 42/42/42
f 40/40/40 43/43/43 41/41/41
f 44/44/44 43/43/43 40/40/40
f 44/44/44 45/45/45 43/43/43
f 46/46/46 45/45/45 44/44/44
f 46/46/46 47/47/47 45/45/45
f 48/48/48 47/47/47 46/46/46
f 48/48/48 49/49/49 47/47/47
f 50/50/50 49/49/49 48/48/48
f 50/50/50 51/51/51 49/49/49
f 52/52/52 53/53/53 54/54/54
f 52/52/52 55/55/55 53/53/53
f 56/56/56 55/55/55 52/52/52
f 56/56/56 57/57/57 55/55/55
f 40/40/40 57/57/57 56/56/56
f 40/40/40 58/58/58 57/57/57
f 42/42/42 58/58/58 40/40/40
f 42/42/42 59/59/59 58/58/58
f 60/60/60 59/59/59 42/42/42
f 60/60/60 61/61/61 59/59/59
f 62/62/62 63/63/63 64/64/64
f 62/62/62 65/65/65 63/63/63
f 66/66/66 65/65/65 62/62/62
f 66/66/66 67/67/67 65/65/65
f 68/68/68 67/67/67 66/66/66
f 68/68/68 69/69/69 67/67/67
f 70/70/70 69/69/69 68/68/68
f 55/55/55 71/71/71 53/53/53
f 55/55/55 72/72/72 71/71/71
f 73/73/73 72/72/72 55/55/55
f 73/73/73 74/74/74 72/72/72
f 75/75/75 74/74/74 73/73/73
f 42/42/42 76/76/76 60/60/60
f 42/42/42 77/77/77 76/76/76
f 41/41/41 77/77/77 42/42/42
f 41/41/41 78/78/78 77/77/77
f 79/79/79 78/78/78 41/41/41
f 66/66/66 80/80/80 68/68/68
f 66/66/66 81/81/81 80/80/80
f 62/62/62 81/81/81 66/66/66
f 62/62/62 82/82/82 81/81/81
f 83/83/83 82/82/82 62/62/62
f 73/73/73 84/84/84 75/75/75
f 73/73/73 85/85/85 84/84/84
f 57/57/57 85/85/85 73/73/73
f 57/57/57 58/58/58 85/85/85
f 46/46/46 52/52/52 48/48/48
f 46/46/46 56/56/56 52/52/52
f 44/44/44 56/56/56 46/46/46
f 44/44/44 40/40/40 56/56/56
f 86/86/86 49/49/49 51/51/51
f 86/86/86 43/43/43 49/49/49
f 87/87/87 43/43/43 86/86/86
f 87/87/87 79/79/79 43/43/43
f 88/88/88 59/59/59 61/61/61
f 88/88/88 84/84/84 59/59/59
f 89/89/89 84/84/84 88/88/88
f 89/89/89 75/75/75 84/84/84
f 90/90/90 52/52/52 54/54/54
f 90/90/90 48/48/48 52/52/52
f 91/91/91 48/48/48 90/90/90
f 91/91/91 50/50/50 48/48/48
f 68/68/68 92/92/92 70/70/70
f 68/68/68 93/93/93 92/92/92
f 94/94/94 93/93/93 68/68/68
f 95/95/95 96/96/96 97/97/97
f 95/95/95 98/98/98 96/96/96
f 99/99/99 98/98/98 95/95/95
f 68/68/68 100/100/100 94/94/94
f 68/68/68 101/101/101 100/100/100
f 80/80/80 101/101/101 68/68/68
f 62/62/62 102/102/102 83/83/83
f 62/62/62 103/103/103 102/102/102
f 104/104/104 103/103/103 62/62/62
f 105/105/105 106/106/106 107/107/107
f 105/105/105 108/108/108 106/106/106
f 109/109/109 108/108/108 105/105/105
f 105/105/105 110/110/110 111/111/111
f 105/105/105 112/112/112 110/110/110
f 113/113/113 112/112/112 105/105/105
f 105/105/105 114/114/114 109/109/109
f 105/105/105 115/115/115 114/114/114
f 111/111/111 115/115/115 105/105/105
f 105/105/105 116/116/116 113/113/113
f 105/105/105 117/117/117 116/116/116
f 107/107/107 117/117/117 105/105/105
f 118/118/118 119/119/119 120/120/120
f 118/118/118 121/121/121 119/119/119
f 122/122/122 121/121/121 118/118/118
f 118/118/118 123/123/123 122/122/122
f 118/118/118 124/124/124 123/123/123
f 125/125/125 124/124/124 118/118/118
f 118/118/118 126/126/126 125/125/125
f 118/118/118 127/127/127 126/126/126
f 128/128/128 127/127/127 118/118/118
f 95/95/95 129/129/129 130/130/130
f 95/95/95 131/131/131 129/129/129
f 132/132/132 131/131/131 95/95/95
f 95/95/95 133/133/133 132/132/132
f 95/95/95 134/134/134 133/133/133
f 97/97/97 134/134/134 95/95/95
f 135/135/135 84/84/84 85/85/85
f 135/135/135 59/59/59 84/84/84
f 58/58/58 59/59/59 135/135/135
f 136/136/136 137/137/137 138/138/138
f 136/136/136 139/139/139 137/137/137
f 140/140/140 141/141/141 142/142/142
f 140/140/140 143/143/143 141/141/141
f 143/143/143 144/144/144 141/141/141
f 143/143/143 145/145/145 144/144/144
f 145/145/145 146/146/146 144/144/144
f 145/145/145 147/147/147 146/146/146
f 147/147/147 148/148/148 146/146/146
f 147/147/147 149/149/149 148/148/148
f 150/150/150 151/151/151 152/152/152
f 150/150/150 153/153/153 151/151/151
f 153/153/153 154/154/154 151/151/151
f 153/153/153 155/155/155 154/154/154
f 139/139/139 156/156/156 137/137/137
f 139/139/139 157/157/157 156/156/156
f 157/157/157 158/158/158 156/156/156
f 157/157/157 159/159/159 158/158/158
f 159/159/159 160/160/160 158/158/158
f 159/159/159 161/161/161 160/160/160
f 161/161/161 155/155/155 160/160/160
f 161/161/161 154/154/154 155/155/155
f 162/162/162 163/163/163 164/164/164
f 162/162/162 165/165/165 163/163/163
f 166/166/166 167/167/167 168/168/168
f 166/166/166 169/169/169 167/167/167
f 170/170/170 118/118/118 120/120/120
f 170/170/170 171/171/171 118/118/118
f 172/172/172 95/95/95 130/130/130
f 172/172/172 173/173/173 95/95/95
f 174/174/174 62/62/62 64/64/64
f 174/174/174 175/175/175 62/62/62
f 176/176/176 177/177/177 178/178/178
f 176/176/176 179/179/179 177/177/177
f 180/180/180 178/178/178 181/181/181
f 180/180/180 176/176/176 178/178/178
f 182/182/182 181/181/181 183/183/183
f 182/182/182 180/180/180 181/181/181
f 184/184/184 179/179/179 185/185/185
f 184/184/184 177/177/177 179/179/179
f 186/186/186 185/185/185 187/187/187
f 186/186/186 184/184/184 185/185/185
f 188/188/188 187/187/187 189/189/189
f 188/188/188 186/186/186 187/187/187
f 149/149/149 152/152/152 148/148/148
f 149/149/149 150/150/150 152/152/152
f 190/190/190 189/189/189 191/191/191
f 190/190/190 188/188/188 189/189/189
f 192/192/192 191/191/191 193/193/193
f 192/192/192 190/190/190 191/191/191
f 169/169/169 193/193/193 167/167/167
f 169/169/169 192/192/192 193/193/193
f 49/49/49 45/45/45 47/47/47
f 49/49/49 43/43/43 45/45/45
f 165/165/165 183/183/183 163/163/163
f 165/165/165 182/182/182 183/183/183
f 175/175/175 104/104/104 62/62/62
f 128/128/128 118/118/118 171/171/171
f 99/99/99 95/95/95 173/173/173
f 73/73/73 55/55/55 57/57/57
f 79/79/79 41/41/41 43/43/43
f 85/85/85 58/58/58 135/135/135

